<svg width="1711" height="521" viewBox="0 0 1711 521" fill="none" xmlns="http://www.w3.org/2000/svg">
<path d="M210.491 111C210.491 160.834 228.955 195.279 255.052 217.42C281.416 239.788 316.368 250.249 349.999 250.249L350 270.727C312.424 270.726 272.499 259.085 241.789 233.03C240.177 231.663 238.595 230.255 237.04 228.812C239.993 234.435 243.157 239.843 246.515 245.043C268.824 279.592 300.049 305.654 335.813 326.171L325.611 343.93C287.847 322.266 253.838 294.152 229.297 256.146C227.434 253.262 225.63 250.324 223.883 247.331C225.244 252.974 226.709 258.493 228.28 263.916C240.23 305.157 258.433 341.443 283.861 385.644L266.097 395.85C241.648 353.353 223.115 316.929 210.491 275.946V411H190V111H210.491Z" fill="white"/>
<path fill-rule="evenodd" clip-rule="evenodd" d="M1233.6 346.409H1213.67V322.49C1205.2 340.18 1189.5 350.396 1166.58 350.396C1127.46 350.396 1109.52 322.241 1109.52 284.12C1109.52 245.75 1127.46 217.845 1166.58 217.845C1189.5 217.845 1205.2 227.811 1213.67 245.501V172H1233.6V346.409ZM1170.57 234.04C1142.16 234.04 1129.71 250.484 1129.71 284.12C1129.71 317.507 1142.16 334.201 1170.57 334.201C1196.98 334.201 1213.67 319.251 1213.67 284.12C1213.67 248.989 1196.98 234.04 1170.57 234.04Z" fill="white"/>
<path d="M551.519 176.235C594.871 176.236 616.299 198.162 618.541 230.054H598.608C596.366 207.63 582.413 192.431 551.269 192.431C521.868 192.431 509.41 205.138 509.41 223.575C509.41 236.531 515.64 246.746 534.326 249.736L575.687 255.966C605.087 260.7 620.783 273.656 620.783 300.315C620.783 331.958 601.35 350.146 555.256 350.146C501.438 350.146 483 322.241 483 289.602H503.182C503.68 315.265 516.886 333.952 555.256 333.952C589.39 333.952 599.854 322.241 599.854 303.057C599.854 285.616 590.635 276.894 569.706 273.406L530.589 267.427C501.687 263.191 488.481 248.989 488.481 224.073C488.482 197.414 508.664 176.235 551.519 176.235Z" fill="white"/>
<path fill-rule="evenodd" clip-rule="evenodd" d="M888.517 217.596C922.651 217.596 938.099 233.293 938.099 255.717V315.515C938.099 324.484 938.348 334.202 939.594 346.41H921.405C920.409 335.697 919.661 326.477 919.661 317.259C914.927 332.208 901.721 349.648 872.819 349.648C848.9 349.648 831.709 337.191 831.709 313.521C831.709 293.34 842.671 280.632 869.58 276.147L901.224 270.915C914.429 268.673 919.91 265.185 919.91 255.717C919.91 243.01 913.432 233.293 889.264 233.293C864.846 233.293 855.628 244.754 854.382 260.949H834.698C835.446 234.539 854.133 217.596 888.517 217.596ZM919.91 276.646C913.681 281.13 906.954 283.124 897.486 285.117L876.806 289.353C859.863 292.841 851.891 299.319 851.891 312.773C851.891 326.975 862.106 333.952 876.806 333.952C906.206 333.952 919.91 311.029 919.91 287.359V276.646Z" fill="white"/>
<path d="M680.679 221.831H721.789V237.528H680.679V330.215H720.295V346.41H690.894C666.975 346.41 660.746 337.191 660.746 317.259V237.528H637.076V226.316L662.49 220.087L669.965 194.175H680.679V221.831Z" fill="white"/>
<path d="M817.135 239.771H811.902C775.027 238.525 767.054 265.434 767.054 300.564V346.409H747.122V221.831H767.054V254.72C774.528 234.04 788.98 220.087 812.649 220.087H817.135V239.771Z" fill="white"/>
<path d="M1038.74 217.845C1069.89 217.845 1083.09 234.788 1083.09 266.929V346.409H1063.16V269.171C1063.16 242.511 1051.45 234.538 1033.26 234.538C1005.61 234.538 990.906 255.966 990.906 298.82V346.409H970.974V221.831H990.906V254.471C998.63 231.798 1014.08 217.845 1038.74 217.845Z" fill="white"/>
<path fill-rule="evenodd" clip-rule="evenodd" d="M1472.74 346.409H1451.81L1435.61 304.053H1353.39L1337.2 346.409H1316.52L1379.3 180.721H1409.95L1472.74 346.409ZM1359.62 287.359H1429.38L1394.5 195.67L1359.62 287.359Z" fill="white"/>
<path d="M1521.5 346.409H1501.06V182.721L1521.5 179.721V346.409Z" fill="white"/>
</svg>
