<svg width="521" height="521" viewBox="0 0 521 521" fill="none" xmlns="http://www.w3.org/2000/svg">
<path d="M210.491 103C210.491 152.834 228.955 187.279 255.052 209.42C281.416 231.788 316.368 242.249 349.999 242.249L350 262.727C312.424 262.726 272.499 251.085 241.789 225.03C240.177 223.663 238.595 222.255 237.04 220.812C239.993 226.435 243.157 231.843 246.515 237.043C268.824 271.592 300.049 297.654 335.813 318.171L325.611 335.93C287.847 314.266 253.838 286.152 229.297 248.146C227.434 245.262 225.63 242.324 223.883 239.331C225.244 244.974 226.709 250.493 228.28 255.916C240.23 297.157 258.433 333.443 283.861 377.644L266.097 387.85C241.648 345.353 223.115 308.929 210.491 267.946V403H190V103H210.491Z" fill="#004D3B"/>
</svg>
